<svg width="35" height="35" viewBox="0 0 35 35" fill="none" xmlns="http://www.w3.org/2000/svg">
<path d="M32.5401 4.66663H2.45992C1.10367 4.66663 0 5.77029 0 7.12654V27.8734C0 29.2296 1.10367 30.3333 2.45992 30.3333H32.5401C33.8963 30.3333 35 29.2296 35 27.8734V7.12654C35 5.77029 33.8963 4.66663 32.5401 4.66663ZM33.8333 27.8734C33.8333 28.5868 33.2535 29.1666 32.5401 29.1666H2.45992C1.7465 29.1666 1.16667 28.5868 1.16667 27.8734V7.12654C1.16667 6.41313 1.7465 5.83329 2.45992 5.83329H32.5401C33.2535 5.83329 33.8333 6.41313 33.8333 7.12654V27.8734Z" fill="#333333"/>
<path d="M13.2055 21.1434L11.0833 20.0596V19.8339C12.033 19.3153 12.7009 18.4613 13.0737 17.2882C13.6389 16.9884 14 16.4044 14 15.7499V15.1666C14 14.6264 13.7486 14.1254 13.3286 13.7964C12.9646 11.5914 11.4257 10.4737 8.75 10.4737C8.62341 10.4737 8.49975 10.4784 8.379 10.4877C7.875 10.5291 7.13708 10.4854 6.49833 10.056C6.25975 9.89503 6.0795 9.7387 5.96458 9.59345C5.76858 9.3432 5.439 9.2557 5.14675 9.37586C4.85391 9.49603 4.68183 9.78886 4.71858 10.1033C4.74308 10.3214 4.77983 10.5752 4.83525 10.8534C4.94783 11.4222 4.94783 11.4222 4.78975 11.7623C4.73025 11.8912 4.65675 12.0481 4.57041 12.2599C4.37733 12.7329 4.24025 13.2509 4.1615 13.8039C3.74733 14.1335 3.5 14.6317 3.5 15.1666V15.7499C3.5 16.4044 3.86108 16.9884 4.42633 17.2882C4.79908 18.4619 5.467 19.3159 6.41666 19.8339V20.0532L4.21808 21.137C3.41541 21.5745 2.91666 22.4145 2.91666 23.3292V24.1021C2.91666 24.5705 2.91666 25.6666 8.75 25.6666C14.5833 25.6666 14.5833 24.5705 14.5833 24.1021V23.3759C14.5833 22.4244 14.0554 21.5699 13.2055 21.1434ZM13.4167 23.9703C13.0527 24.1919 11.5722 24.4999 8.75 24.4999C5.92783 24.4999 4.44733 24.1919 4.08333 23.9703V23.3292C4.08333 22.8421 4.34875 22.3941 4.75533 22.173L7.00525 21.0641C7.35641 20.8926 7.58275 20.5292 7.58275 20.1378V19.086L7.23041 18.9344C6.3455 18.5529 5.77033 17.8254 5.47166 16.7095L5.38825 16.3986L5.08141 16.3029C4.83758 16.2265 4.66666 15.9996 4.66666 15.7499V15.1666C4.66666 14.9554 4.78741 14.7594 4.98225 14.6556L5.25583 14.5098L5.28791 14.2012C5.34566 13.654 5.46758 13.1494 5.65075 12.702C5.72833 12.5124 5.79425 12.3707 5.84791 12.2546C6.04566 11.8299 6.11741 11.6106 6.06783 11.1609C6.75383 11.5529 7.57808 11.7197 8.47233 11.6514C8.56275 11.6439 8.6555 11.6404 8.75058 11.6404C10.9346 11.6404 12.0009 12.4314 12.2092 14.2059L12.2453 14.5104L12.5166 14.6539C12.7114 14.7577 12.8333 14.9543 12.8333 15.1666V15.7499C12.8333 15.9996 12.6624 16.2265 12.418 16.3024L12.1112 16.398L12.0277 16.7089C11.7291 17.8249 11.1539 18.5523 10.269 18.9338L9.91666 19.086V20.1424C9.91666 20.5327 10.1325 20.8844 10.479 21.0612L12.6811 22.1864C13.1349 22.4128 13.4167 22.8689 13.4167 23.3759V23.9703Z" fill="#333333"/>
<path d="M17.5 13.4167H23.3333C23.6559 13.4167 23.9167 13.1559 23.9167 12.8333C23.9167 12.5107 23.6559 12.25 23.3333 12.25H17.5C17.1774 12.25 16.9167 12.5107 16.9167 12.8333C16.9167 13.1559 17.1774 13.4167 17.5 13.4167Z" fill="#333333"/>
<path d="M25.6667 13.4167H26.25C26.5726 13.4167 26.8333 13.1559 26.8333 12.8333C26.8333 12.5107 26.5726 12.25 26.25 12.25H25.6667C25.3441 12.25 25.0833 12.5107 25.0833 12.8333C25.0833 13.1559 25.3441 13.4167 25.6667 13.4167Z" fill="#333333"/>
<path d="M18.0833 22.1666H17.5C17.1774 22.1666 16.9167 22.4274 16.9167 22.75C16.9167 23.0725 17.1774 23.3333 17.5 23.3333H18.0833C18.4059 23.3333 18.6667 23.0725 18.6667 22.75C18.6667 22.4274 18.4059 22.1666 18.0833 22.1666Z" fill="#333333"/>
<path d="M21.5833 22.1666H20.4167C20.0941 22.1666 19.8333 22.4274 19.8333 22.75C19.8333 23.0725 20.0941 23.3333 20.4167 23.3333H21.5833C21.9059 23.3333 22.1667 23.0725 22.1667 22.75C22.1667 22.4274 21.9059 22.1666 21.5833 22.1666Z" fill="#333333"/>
<path d="M24.5 22.1666H23.9167C23.5941 22.1666 23.3333 22.4274 23.3333 22.75C23.3333 23.0725 23.5941 23.3333 23.9167 23.3333H24.5C24.8226 23.3333 25.0833 23.0725 25.0833 22.75C25.0833 22.4274 24.8226 22.1666 24.5 22.1666Z" fill="#333333"/>
<path d="M28 22.1666H26.8333C26.5108 22.1666 26.25 22.4274 26.25 22.75C26.25 23.0725 26.5108 23.3333 26.8333 23.3333H28C28.3226 23.3333 28.5833 23.0725 28.5833 22.75C28.5833 22.4274 28.3226 22.1666 28 22.1666Z" fill="#333333"/>
<path d="M29.9192 22.3358C29.8136 22.4461 29.75 22.5983 29.75 22.75C29.75 22.9017 29.8136 23.0533 29.9192 23.1642C30.0294 23.2692 30.1817 23.3333 30.3333 23.3333C30.485 23.3333 30.6367 23.2692 30.7475 23.1642C30.8525 23.0533 30.9167 22.9017 30.9167 22.75C30.9167 22.5983 30.8525 22.4461 30.7475 22.3358C30.5258 22.12 30.135 22.12 29.9192 22.3358Z" fill="#333333"/>
<path d="M30.3333 15.75H17.5C17.1774 15.75 16.9167 16.0107 16.9167 16.3333C16.9167 16.6559 17.1774 16.9167 17.5 16.9167H30.3333C30.6559 16.9167 30.9167 16.6559 30.9167 16.3333C30.9167 16.0107 30.6559 15.75 30.3333 15.75Z" fill="#333333"/>
<path d="M30.3333 19.25H17.5C17.1774 19.25 16.9167 19.5107 16.9167 19.8333C16.9167 20.1559 17.1774 20.4167 17.5 20.4167H30.3333C30.6559 20.4167 30.9167 20.1559 30.9167 19.8333C30.9167 19.5107 30.6559 19.25 30.3333 19.25Z" fill="#333333"/>
</svg>
