<svg width="64" height="65" viewBox="0 0 64 65" fill="none" xmlns="http://www.w3.org/2000/svg">
<g clip-path="url(#clip0)">
<path d="M31.9998 0.0895996C14.3552 0.0895996 0 14.4448 0 32.0894C0 49.7341 14.3552 64.0893 31.9998 64.0893C49.6445 64.0893 63.9997 49.7341 63.9997 32.0894C63.9997 14.4448 49.6448 0.0895996 31.9998 0.0895996ZM31.9998 59.8782C16.6772 59.8782 4.21142 47.4121 4.21142 32.0894C4.21142 16.7668 16.6772 4.30102 31.9998 4.30102C47.3225 4.30102 59.7883 16.7668 59.7883 32.0894C59.7883 47.4121 47.3225 59.8782 31.9998 59.8782Z" fill="#333333"/>
<path d="M34.1056 30.2V18.2444C35.2971 18.6869 36.3367 19.4988 37.0596 20.5967C37.6994 21.5681 39.0052 21.837 39.9763 21.1975C40.9476 20.5579 41.2165 19.2521 40.5767 18.2808C39.0639 15.9837 36.7329 14.4243 34.1056 13.8747V10.5297C34.1056 9.36671 33.1628 8.42395 31.9999 8.42395C30.8369 8.42395 29.8941 9.36671 29.8941 10.5297V13.8684C25.2336 14.84 21.7216 18.979 21.7216 23.9235C21.7216 28.868 25.2339 33.0075 29.8941 33.9791V45.9347C28.7026 45.4922 27.663 44.6803 26.9401 43.5824C26.3003 42.611 24.9945 42.3418 24.0234 42.9816C23.0521 43.6212 22.7832 44.927 23.423 45.8983C24.9358 48.1954 27.2668 49.7548 29.8941 50.3044V53.6492C29.8941 54.8121 30.8369 55.7549 31.9999 55.7549C33.1628 55.7549 34.1056 54.8121 34.1056 53.6492V50.3107C38.7661 49.3391 42.2781 45.2001 42.2781 40.2556C42.2781 35.3111 38.7661 31.1716 34.1056 30.2ZM25.933 23.9235C25.933 21.3205 27.5857 19.1023 29.8941 18.2459V29.6011C27.5857 28.7446 25.933 26.5264 25.933 23.9235ZM34.1056 45.9329V34.5777C36.414 35.4342 38.0667 37.6524 38.0667 40.2553C38.0667 42.8583 36.4143 45.0765 34.1056 45.9329Z" fill="#333333"/>
</g>
<defs>
<clipPath id="clip0">
<rect width="64" height="64" fill="white" transform="translate(0 0.0895996)"/>
</clipPath>
</defs>
</svg>
