<svg width="34" height="34" viewBox="0 0 34 34" fill="none" xmlns="http://www.w3.org/2000/svg">
<g clip-path="url(#clip0)">
<path d="M16.9999 6.703C12.092 6.70647 8.1143 10.6842 8.11084 15.592C8.1547 18.7956 9.71343 21.7891 12.3128 23.6621V30.0815C12.3149 30.1549 12.3298 30.2275 12.3569 30.2957V30.3461C12.3678 30.3721 12.3805 30.3974 12.3947 30.4217L14.6122 33.7228C14.7296 33.8965 14.9256 34.0003 15.1351 34H18.8016C19.0111 34.0003 19.2072 33.8965 19.3245 33.7228L21.542 30.4217C21.5563 30.3974 21.5689 30.3721 21.5798 30.3461V30.2957C21.6069 30.2275 21.6218 30.1549 21.6239 30.0815V23.6621C24.2234 21.7891 25.782 18.7956 25.8259 15.592C25.8226 10.7086 21.8831 6.74104 16.9999 6.703ZM18.4992 32.759H15.5005L14.1271 30.7178H19.8663L18.4992 32.759ZM13.5791 29.4579V27.7884H20.4207L20.4269 29.4579H13.5791ZM20.7104 22.799V22.8179C20.5325 22.935 20.4259 23.1341 20.4269 23.3471V26.5474H13.5791V23.3093C13.5801 23.0963 13.4735 22.8972 13.2956 22.7801C10.8837 21.1684 9.4186 18.4736 9.3771 15.5731C9.49813 11.3615 13.0105 8.04533 17.2222 8.16637C21.2637 8.28252 24.5128 11.5316 24.6289 15.5731C24.5936 18.4804 23.1278 21.1835 20.7104 22.799Z" fill="#333333"/>
<path d="M17.2518 9.55676C16.9039 9.55676 16.6218 9.83884 16.6218 10.1867C16.6218 10.5346 16.9039 10.8167 17.2518 10.8167C19.8702 10.8202 21.9921 12.942 21.9955 15.5605C21.9955 15.9084 22.2776 16.1904 22.6255 16.1904C22.9734 16.1904 23.2555 15.9084 23.2555 15.5605C23.252 12.2461 20.5661 9.56023 17.2518 9.55676Z" fill="#333333"/>
<path d="M6.41632 14.9305H1.88047C1.53256 14.9305 1.25049 15.2126 1.25049 15.5605C1.25049 15.9084 1.53256 16.1905 1.88047 16.1905H6.41632C6.76423 16.1905 7.0463 15.9084 7.0463 15.5605C7.0463 15.2126 6.76423 14.9305 6.41632 14.9305Z" fill="#333333"/>
<path d="M32.1194 14.9305H27.5836C27.2357 14.9305 26.9536 15.2126 26.9536 15.5605C26.9536 15.9084 27.2357 16.1905 27.5836 16.1905H32.1194C32.4674 16.1905 32.7494 15.9084 32.7494 15.5605C32.7494 15.2126 32.4674 14.9305 32.1194 14.9305Z" fill="#333333"/>
<path d="M10.0254 22.61C9.79904 22.3457 9.40136 22.3149 9.13708 22.5413C9.11244 22.5624 9.08944 22.5854 9.06834 22.61V22.5974L5.84914 25.8292C5.58487 26.0555 5.55408 26.4532 5.7804 26.7175C6.00672 26.9818 6.40439 27.0125 6.66867 26.7862C6.69332 26.7651 6.71631 26.7421 6.73741 26.7175L9.95661 23.4983C10.2209 23.272 10.2517 22.8743 10.0254 22.61Z" fill="#333333"/>
<path d="M28.082 4.40985C27.8462 4.20786 27.4983 4.20786 27.2625 4.40985L24.0433 7.62905C23.7963 7.87403 23.7946 8.27297 24.0396 8.52C24.1587 8.64017 24.3213 8.70734 24.4906 8.70632L24.4843 8.70002C24.6517 8.70096 24.8127 8.63521 24.9316 8.51732L28.1508 5.29812C28.3771 5.03385 28.3463 4.63617 28.082 4.40985Z" fill="#333333"/>
<path d="M28.2759 25.9559C28.2405 25.9079 28.1984 25.8652 28.1509 25.8292L24.9318 22.5974C24.7054 22.3331 24.3078 22.3023 24.0435 22.5286C23.7792 22.7549 23.7484 23.1526 23.9747 23.4169C23.9958 23.4415 24.0188 23.4645 24.0435 23.4856L27.2627 26.7048C27.4695 26.9846 27.864 27.0438 28.1438 26.837C28.4236 26.6302 28.4827 26.2357 28.2759 25.9559Z" fill="#333333"/>
<path d="M9.95671 7.62905L6.73752 4.40985C6.47324 4.18353 6.07556 4.21432 5.84924 4.4786C5.64726 4.71445 5.64726 5.06228 5.84924 5.29812L9.06844 8.51732C9.33272 8.74364 9.73039 8.71285 9.95671 8.44858C10.1587 8.21273 10.1587 7.8649 9.95671 7.62905Z" fill="#333333"/>
<path d="M17.0001 0C16.6522 0 16.3702 0.282073 16.3702 0.62998V5.18473C16.3597 5.53248 16.6332 5.8229 16.9809 5.8333C16.9873 5.83345 16.9937 5.83361 17.0001 5.83361C17.3481 5.83361 17.6301 5.55154 17.6301 5.20363V0.62998C17.6301 0.282073 17.3481 0 17.0001 0Z" fill="#333333"/>
</g>
<defs>
<clipPath id="clip0">
<rect width="34" height="34" fill="white"/>
</clipPath>
</defs>
</svg>
