<svg width="64" height="65" viewBox="0 0 64 65" fill="none" xmlns="http://www.w3.org/2000/svg">
<g clip-path="url(#clip0)">
<path d="M62.1257 30.7294C61.0902 30.7294 60.2507 31.576 60.2507 32.6203C60.2507 48.3298 47.5778 61.1103 32.0009 61.1103C16.4239 61.1103 3.75106 48.3298 3.75106 32.6203C3.75106 16.9109 16.4239 4.13036 32.0009 4.13036C36.7507 4.13036 41.3711 5.31976 45.4957 7.5861L43.1516 9.95014C42.6153 10.4909 42.455 11.3042 42.7451 12.0109C43.0353 12.7174 43.719 13.1782 44.4773 13.1782H53.4489C54.4844 13.1782 55.3239 12.3316 55.3239 11.2873V2.23944C55.3239 1.47462 54.8671 0.785185 54.1664 0.49247C53.4655 0.199628 52.6591 0.361491 52.123 0.902423L48.2459 4.81248C43.3348 1.88823 37.7511 0.348633 32.0008 0.348633C23.4533 0.348633 15.4174 3.70553 9.37341 9.80075C3.32944 15.8962 0.000961304 24.0004 0.000961304 32.6205C0.000961304 41.2406 3.32944 49.3447 9.37341 55.4401C15.4175 61.5355 23.4533 64.8924 32.0008 64.8924C40.5482 64.8924 48.584 61.5355 54.628 55.4401C60.6721 49.3447 64.0005 41.2406 64.0005 32.6205C64.0007 31.5761 63.1612 30.7294 62.1257 30.7294Z" fill="#333333"/>
<path d="M44.0498 30.7294H33.875V20.468C33.875 19.4237 33.0355 18.577 32 18.577C30.9645 18.577 30.125 19.4237 30.125 20.468V32.6203C30.125 33.6646 30.9645 34.5112 32 34.5112H44.0498C45.0853 34.5112 45.9248 33.6646 45.9248 32.6203C45.9248 31.576 45.0853 30.7294 44.0498 30.7294Z" fill="#333333"/>
</g>
<defs>
<clipPath id="clip0">
<rect width="64" height="64.5441" fill="white" transform="translate(0 0.348389)"/>
</clipPath>
</defs>
</svg>
