<svg width="28" height="28" viewBox="0 0 28 28" fill="none" xmlns="http://www.w3.org/2000/svg">
<g clip-path="url(#clip0)">
<path d="M25.6666 0H2.33335C1.0453 0.00153125 0.00153125 1.0453 0 2.33335V25.6667C0.00153125 26.9547 1.0453 27.9985 2.33335 28H25.6667C26.9547 27.9985 27.9985 26.9547 28.0001 25.6666V2.33335C27.9985 1.0453 26.9547 0.00153125 25.6666 0ZM27.0666 25.6666C27.0666 26.4398 26.4399 27.0666 25.6666 27.0666H2.33335C1.56018 27.0666 0.933352 26.4399 0.933352 25.6666V4.66665H27.0667V25.6666H27.0666ZM27.0666 3.73335H0.933352V2.33335C0.933352 1.56018 1.56018 0.933352 2.33335 0.933352H25.6667C26.4399 0.933352 27.0667 1.56018 27.0667 2.33335V3.73335H27.0666Z" fill="#333333"/>
<path d="M3.26667 1.86664H2.80002C2.54228 1.86664 2.33337 2.07554 2.33337 2.33329C2.33337 2.59103 2.54228 2.79999 2.80002 2.79999H3.26667C3.52441 2.79999 3.73332 2.59108 3.73332 2.33334C3.73332 2.0756 3.52441 1.86664 3.26667 1.86664Z" fill="#333333"/>
<path d="M5.31063 1.90399C5.19797 1.85264 5.06858 1.85264 4.95598 1.90399C4.89943 1.92767 4.84737 1.96081 4.80198 2.00199C4.62151 2.18602 4.62151 2.48062 4.80198 2.66464C4.84737 2.70582 4.89943 2.73896 4.95598 2.76264C5.06896 2.81241 5.19764 2.81241 5.31063 2.76264C5.36717 2.73896 5.41924 2.70582 5.46463 2.66464C5.6451 2.48062 5.6451 2.18602 5.46463 2.00199C5.41924 1.96081 5.36717 1.92767 5.31063 1.90399Z" fill="#333333"/>
<path d="M7.17892 1.89964C7.00381 1.82696 6.80212 1.86737 6.66863 2.00201C6.62745 2.0474 6.59431 2.09946 6.57063 2.15601C6.52081 2.269 6.52081 2.39767 6.57063 2.51066C6.59431 2.56721 6.62745 2.61927 6.66863 2.66466C6.85265 2.84513 7.14726 2.84513 7.33128 2.66466C7.37246 2.61927 7.4056 2.56721 7.42928 2.51066C7.45542 2.45526 7.46822 2.39456 7.46663 2.33331C7.46778 2.14376 7.35403 1.97232 7.17892 1.89964Z" fill="#333333"/>
<path d="M25.2 1.86664H9.33335C9.07561 1.86664 8.8667 2.07554 8.8667 2.33329C8.8667 2.59103 9.07561 2.79993 9.33335 2.79993H25.2C25.4577 2.79993 25.6666 2.59103 25.6666 2.33329C25.6666 2.07554 25.4577 1.86664 25.2 1.86664Z" fill="#333333"/>
<path d="M7.16471 22.2227C7.18593 22.2422 7.20906 22.2596 7.23378 22.2745C8.99039 24.142 11.4407 25.2008 14.0046 25.2C16.5686 25.1991 19.0182 24.1389 20.7736 22.2702C20.7968 22.2567 20.8187 22.2411 20.839 22.2236C20.8543 22.2021 20.8678 22.1793 20.8791 22.1555C24.1539 18.6031 24.1539 13.1321 20.8791 9.57973L20.8773 9.5788C20.8659 9.55496 20.8524 9.53215 20.8371 9.51066C20.8159 9.49087 20.7926 9.47337 20.7676 9.45838C19.0118 7.59233 16.5632 6.53424 14.001 6.53424C11.4387 6.53424 8.99018 7.59233 7.23433 9.45838C7.20939 9.47331 7.18609 9.49087 7.16482 9.51066C7.1495 9.53215 7.13605 9.55496 7.12468 9.5788C3.84988 13.1311 3.84988 18.6022 7.12468 22.1545C7.136 22.1784 7.14939 22.2012 7.16471 22.2227ZM16.5456 23.8686C17.263 23.0023 17.8029 22.0033 18.1346 20.9286V20.9272C18.7209 21.2018 19.274 21.5421 19.7834 21.9417C18.8639 22.8209 17.7569 23.4798 16.5456 23.8686ZM20.4274 21.2637C19.8064 20.7655 19.1249 20.3476 18.3993 20.02C18.6994 18.8132 18.8633 17.5766 18.8878 16.3334H22.3762C22.2792 18.1448 21.5951 19.8754 20.4274 21.2637ZM22.3762 15.4H18.8878C18.8632 14.1567 18.6993 12.9201 18.3993 11.7134C19.1249 11.3861 19.8063 10.9685 20.4274 10.4706C21.5949 11.8586 22.279 13.5889 22.3762 15.4ZM19.7834 9.79023C19.274 10.1898 18.7209 10.5301 18.1347 10.8047C17.8031 9.72952 17.2632 8.73005 16.5457 7.86331C17.7569 8.25219 18.8639 8.91107 19.7834 9.79023ZM14.4666 7.53201C15.6104 7.83159 16.6221 9.20687 17.2596 11.1538C16.359 11.4643 15.4184 11.6433 14.4666 11.6853V7.53201ZM14.4666 12.6192C15.505 12.5803 16.5323 12.3917 17.5168 12.0592C17.7815 13.1539 17.9284 14.2739 17.955 15.4H14.4666V12.6192ZM14.4666 16.3334H17.955C17.9284 17.4591 17.7815 18.5788 17.5168 19.6733C16.5323 19.3411 15.505 19.1528 14.4666 19.1142V16.3334ZM14.4666 20.048C15.4184 20.0902 16.359 20.2693 17.2596 20.58C16.6221 22.5269 15.6104 23.9022 14.4666 24.2018V20.048ZM8.21657 21.9404C8.72609 21.5418 9.2792 21.2024 9.86529 20.9286V20.9272C10.197 22.0019 10.7369 23.0009 11.4543 23.8672C10.2431 23.4784 9.13603 22.8195 8.21657 21.9404ZM13.5333 24.2014C12.3896 23.9018 11.3778 22.5265 10.7403 20.5796C11.6409 20.2691 12.5816 20.0901 13.5333 20.0481V24.2014ZM13.5333 19.1142C12.495 19.1531 11.4677 19.3417 10.4832 19.6742C10.2185 18.5794 10.0716 17.4594 10.045 16.3334H13.5333V19.1142ZM13.5333 15.4H10.045C10.0716 14.2743 10.2185 13.1546 10.4832 12.0601C11.4677 12.3923 12.495 12.5806 13.5333 12.6192V15.4ZM13.5333 7.53152V11.6853C12.5816 11.6431 11.6409 11.464 10.7403 11.1533C11.3778 9.20644 12.3895 7.83115 13.5333 7.53152ZM11.4543 7.86194C10.7367 8.72907 10.1967 9.72903 9.86534 10.8047V10.8033C9.27909 10.5287 8.72598 10.1884 8.21662 9.78875C9.13603 8.90965 10.2431 8.25077 11.4543 7.86194ZM7.57257 10.4697C8.1936 10.9679 8.87506 11.3857 9.60071 11.7133C9.30058 12.9201 9.13668 14.1567 9.11213 15.4H5.62378C5.72079 13.5885 6.40488 11.8579 7.57257 10.4697ZM9.11213 16.3334C9.13674 17.5766 9.30064 18.8133 9.60071 20.02C8.87511 20.3473 8.19365 20.7649 7.57257 21.2627C6.40504 19.8748 5.72101 18.1445 5.62378 16.3333H9.11213V16.3334Z" fill="#333333"/>
</g>
<defs>
<clipPath id="clip0">
<rect width="28" height="28" fill="white"/>
</clipPath>
</defs>
</svg>
