<svg width="32" height="32" viewBox="0 0 32 32" fill="none" xmlns="http://www.w3.org/2000/svg">
<path d="M27.6599 19.0566C25.925 19.0566 23.8625 18.6493 23.2768 17.5061C22.9238 16.8169 23.2823 16.0715 23.6452 15.5676C24.964 13.7361 25.6612 11.6937 25.6612 9.66131C25.6612 4.334 21.3272 0 16 0C10.6728 0 6.33878 4.334 6.33878 9.66119C6.33878 11.6936 7.0359 13.7359 8.35471 15.5674C8.71759 16.0714 9.07615 16.8168 8.72315 17.5059C8.13753 18.6492 6.07503 19.0565 4.34003 19.0565C2.48765 19.0565 0.980713 20.5634 0.980713 22.4158C0.980713 24.2682 2.48765 25.7751 4.34003 25.7751C5.30178 25.7751 6.64353 25.5419 7.78803 25.2413C7.48046 25.4755 7.15384 25.7219 6.84828 25.9416C5.53153 26.8881 5.11234 28.4108 5.75415 29.9151C6.1324 30.8017 6.86828 31.4939 7.77284 31.8141C8.60634 32.1091 9.48122 32.0513 10.2365 31.6513C12.4883 30.4585 13.9498 28.4524 15.0171 26.9876C15.3304 26.5574 15.7359 26.0009 16 25.7298C16.264 26.0009 16.6695 26.5574 16.9828 26.9876C18.05 28.4524 19.5115 30.4585 21.7635 31.6513C22.201 31.883 22.6785 31.9999 23.165 31.9999C23.5183 31.9999 23.8764 31.9383 24.2271 31.8141C25.1318 31.4939 25.8675 30.8018 26.2458 29.9151C26.8876 28.4107 26.4684 26.8881 25.1517 25.9416C24.8461 25.7219 24.5195 25.4756 24.2119 25.2413C25.3563 25.5419 26.6982 25.7751 27.6599 25.7751C29.5123 25.7751 31.0192 24.2682 31.0192 22.4158C31.0192 20.5634 29.5123 19.0566 27.6599 19.0566ZM27.6599 23.8161C26.4712 23.8161 24.3054 23.3173 23.3662 22.9089C22.5241 22.543 21.5665 22.8579 21.1388 23.6416C20.7155 24.4173 20.967 25.3247 21.7505 25.8484C21.9792 26.0012 22.3607 26.2927 22.7647 26.6013C23.1525 26.8976 23.5922 27.2333 24.008 27.5324C24.7192 28.0436 24.6375 28.6923 24.4437 29.1464C24.2823 29.5246 23.957 29.8315 23.5732 29.9673C23.3535 30.0451 23.0202 30.1 22.6805 29.9201C20.8286 28.9392 19.521 27.1445 18.5663 25.834C17.6464 24.5713 16.9817 23.6589 16 23.6589C15.0182 23.6589 14.3535 24.5713 13.4336 25.834C12.4789 27.1444 11.1714 28.9391 9.3194 29.9201C8.97965 30.1001 8.64634 30.0451 8.42671 29.9673C8.04296 29.8315 7.71759 29.5246 7.55621 29.1464C7.36246 28.6923 7.28078 28.0436 7.9919 27.5324C8.40784 27.2334 8.84747 26.8976 9.23522 26.6013C9.63928 26.2926 10.0208 26.0012 10.2493 25.8484C11.0329 25.3248 11.2845 24.4173 10.8612 23.6417C10.4333 22.8578 9.47553 22.5428 8.63378 22.909C7.69453 23.3174 5.52878 23.8161 4.34003 23.8161C3.5679 23.8161 2.93984 23.188 2.93984 22.4159C2.93984 21.6439 3.56796 21.0158 4.34003 21.0158C7.3819 21.0158 9.61503 20.0621 10.4668 18.3992C11.0852 17.1918 10.8949 15.7425 9.94459 14.4228C8.8519 12.9053 8.2979 11.3034 8.2979 9.66125C8.2979 5.41425 11.753 1.95913 16 1.95913C20.247 1.95913 23.7021 5.41425 23.7021 9.66119C23.7021 11.3033 23.1481 12.9053 22.0554 14.4227C21.1051 15.7424 20.9148 17.1918 21.5332 18.3991C22.3849 20.062 24.6181 21.0157 27.66 21.0157C28.4321 21.0157 29.0602 21.6438 29.0602 22.4159C29.0602 23.1879 28.4321 23.8161 27.6599 23.8161Z" fill="#333333"/>
<path d="M12.7399 9.47305C12.0312 9.47305 11.4543 10.0557 11.4543 10.7752C11.4543 11.4946 12.0311 12.0779 12.7399 12.0779C13.4496 12.0779 14.0263 11.4947 14.0263 10.7752C14.0262 10.0557 13.4496 9.47305 12.7399 9.47305Z" fill="#333333"/>
<path d="M19.2505 9.46286C18.5348 9.46286 17.9543 10.0504 17.9543 10.7752C17.9543 11.5 18.5348 12.0876 19.2505 12.0876C19.9652 12.0876 20.5457 11.5 20.5457 10.7752C20.5457 10.0504 19.9652 9.46286 19.2505 9.46286Z" fill="#333333"/>
</svg>
