<svg width="58" height="59" viewBox="0 0 58 59" fill="none" xmlns="http://www.w3.org/2000/svg">
<g clip-path="url(#clip0)">
<path d="M54.1279 28.2108C53.8203 27.7015 53.2685 27.3904 52.6738 27.3904C47.6558 27.3904 43.0617 29.9697 40.4456 34.1873H20.293C18.0238 34.1873 15.8901 35.0709 14.2856 36.6759L4.23582 46.7252C3.57294 47.3885 3.5725 48.4647 4.23582 49.1285C8.36262 53.2548 12.6934 57.5538 12.7368 57.5962C13.4001 58.2551 14.4705 58.2534 15.1325 57.5949L21.5776 51.1795H35.8126C40.2522 51.1795 44.2896 48.7373 46.3477 44.8061C46.3995 44.7074 51.5463 34.8855 54.1774 29.8804C54.4544 29.3533 54.4358 28.7206 54.1279 28.2108ZM43.3374 43.2294C41.8674 46.0371 38.984 47.781 35.8126 47.781H20.8762C20.4266 47.781 19.9956 47.9589 19.6775 48.2757L13.9324 53.9942C12.5788 52.649 10.2495 50.3316 7.84091 47.9262L16.6884 39.0787C17.6513 38.1158 18.9314 37.5857 20.293 37.5857H38.6216L37.3175 40.0739C37.0233 40.6354 36.4467 40.9841 35.8126 40.9841H24.2747C23.3361 40.9841 22.5755 41.7448 22.5755 42.6834C22.5755 43.6219 23.3361 44.3826 24.2747 44.3826H35.8126C37.7144 44.3826 39.4446 43.3361 40.3279 41.6514C40.3292 41.6483 42.9506 36.6467 42.9506 36.6467C44.3737 33.9545 46.8022 32.0225 49.6391 31.2123C46.9279 36.3772 43.3807 43.1471 43.3374 43.2294Z" fill="#333333"/>
<path d="M19.1767 30.7889H39.5674C40.5055 30.7889 41.2666 30.0282 41.2666 29.0896V8.5857C41.2666 7.64715 40.5055 6.88648 39.5674 6.88648H34.4697V5.18726C34.4697 2.37647 32.1828 0.0895996 29.372 0.0895996C26.5612 0.0895996 24.2744 2.37647 24.2744 5.18726V6.88648H19.1767C18.2382 6.88648 17.4775 7.64715 17.4775 8.5857V29.0896C17.4775 30.0282 18.2382 30.7889 19.1767 30.7889ZM27.6728 5.18726C27.6728 4.25048 28.4348 3.48804 29.372 3.48804C30.3088 3.48804 31.0713 4.25048 31.0713 5.18726V6.88648H27.6728V5.18726ZM20.8759 10.2849H24.2744V11.9841C24.2744 12.9227 25.035 13.6834 25.9736 13.6834C26.9117 13.6834 27.6728 12.9227 27.6728 11.9841V10.2849H31.0713V11.9841C31.0713 12.9227 31.8319 13.6834 32.7705 13.6834C33.7086 13.6834 34.4697 12.9227 34.4697 11.9841V10.2849H37.8681V27.3904H20.8759V10.2849Z" fill="#333333"/>
</g>
<defs>
<clipPath id="clip0">
<rect width="58" height="58" fill="white" transform="translate(0 0.0895996)"/>
</clipPath>
</defs>
</svg>
