<svg width="32" height="32" viewBox="0 0 32 32" fill="none" xmlns="http://www.w3.org/2000/svg">
<path d="M22.7348 17.2455H18.3866C17.1966 17.2455 16.2289 18.2133 16.2289 19.4033V22.738C16.2289 23.928 17.1966 24.8957 18.3866 24.8957H22.7348C23.9248 24.8957 24.8925 23.928 24.8925 22.738V19.4033C24.8925 18.2133 23.9248 17.2455 22.7348 17.2455ZM23.3233 22.738C23.3233 23.0649 23.0552 23.3265 22.7348 23.3265H18.3866C18.0597 23.3265 17.7981 23.0584 17.7981 22.738V19.4033C17.7981 19.0764 18.0662 18.8148 18.3866 18.8148H22.7348C23.0617 18.8148 23.3233 19.0829 23.3233 19.4033V22.738Z" fill="#333333"/>
<path d="M32 11.1843C32 11.047 31.9673 10.9162 31.8954 10.7985L27.1353 2.42907C26.998 2.18714 26.7364 2.03021 26.4553 2.03021H5.53821C5.25705 2.03021 4.99551 2.1806 4.85819 2.42907L0.104618 10.7985C0.0392317 10.9162 0 11.047 0 11.1843C0 13.0609 1.13118 14.6694 2.74622 15.3821V29.1851C2.74622 29.6166 3.09931 29.9697 3.53085 29.9697H7.86596C7.8725 29.9697 7.87904 29.9697 7.88557 29.9697H13.9665C13.973 29.9697 13.9796 29.9697 13.9861 29.9697H28.4626C28.8942 29.9697 29.2472 29.6166 29.2472 29.1851V15.4802C29.2472 15.4475 29.2472 15.4213 29.2407 15.3951C30.8623 14.6824 32 13.0674 32 11.1843ZM5.99591 3.60602H25.9975L29.718 10.1512H2.28198L5.99591 3.60602ZM22.774 11.7139C22.5255 13.1262 21.2897 14.1986 19.8055 14.1986C18.3212 14.1986 17.0854 13.1262 16.8369 11.7139H22.774ZM15.1696 11.7139C14.9211 13.1262 13.6853 14.1986 12.2011 14.1986C10.7168 14.1986 9.481 13.1262 9.22599 11.7139H15.1696ZM1.62158 11.7139H7.56518C7.31671 13.1262 6.07438 14.1986 4.59011 14.1986C3.10584 14.2051 1.87005 13.1262 1.62158 11.7139ZM13.1819 28.4005H8.67021V19.933C8.67021 19.3183 9.16714 18.8148 9.78831 18.8148H12.0703C12.6849 18.8148 13.1884 19.3118 13.1884 19.933V28.4005H13.1819ZM27.678 28.4005H14.7511V19.933C14.7511 18.4552 13.548 17.2456 12.0638 17.2456H9.78177C8.30405 17.2456 7.0944 18.4487 7.0944 19.933V28.407H4.31549V15.7679C4.40703 15.7744 4.49857 15.7744 4.59011 15.7744C6.17246 15.7744 7.57172 14.9701 8.39559 13.7474C9.21945 14.9701 10.6187 15.7744 12.2011 15.7744C13.7834 15.7744 15.1761 14.9701 16.0065 13.7474C16.8304 14.9701 18.2297 15.7744 19.8055 15.7744C21.3878 15.7744 22.7805 14.9701 23.6044 13.7474C24.4283 14.9701 25.8275 15.7744 27.4099 15.7744C27.5014 15.7744 27.5864 15.7679 27.678 15.7679V28.4005ZM27.4099 14.2051C25.9256 14.2051 24.6898 13.1328 24.4414 11.7204H30.385C30.13 13.1262 28.8942 14.2051 27.4099 14.2051Z" fill="#333333"/>
</svg>
