<svg width="34" height="34" viewBox="0 0 34 34" fill="none" xmlns="http://www.w3.org/2000/svg">
<path d="M25.3816 3.16528L25.3814 3.16508C25.7275 2.81424 26.08 2.66199 26.4028 2.66199C26.7351 2.66199 27.1019 2.81678 27.454 3.15492L29.9312 5.62274C30.5286 6.21788 30.8431 6.89943 30.918 7.72384C31.0204 9.00913 30.7717 10.4376 30.0935 12.2414L30.0932 12.2422C28.9989 15.1844 27.3427 17.9349 24.8716 20.8983C21.8758 24.469 18.2662 27.2811 14.1544 29.2634C12.6342 29.9843 10.6384 30.8157 8.50344 30.9521C8.38969 30.9588 8.27682 30.9649 8.17199 30.9649C7.06021 30.9649 6.21612 30.6073 5.50071 29.8411C5.0774 29.337 4.61287 28.8878 4.17337 28.4628C4.14703 28.4373 4.12079 28.4119 4.09465 28.3867L4.09335 28.3854C3.78098 28.0875 3.49192 27.8059 3.21702 27.5125L3.21454 27.5099C2.83567 27.117 2.67254 26.7486 2.66988 26.4127C2.66723 26.0789 2.82272 25.7249 3.19088 25.3581C3.19093 25.3581 3.19098 25.358 3.19103 25.358M25.3816 3.16528L3.01459 25.1808L3.19103 25.358M25.3816 3.16528L25.3729 3.17332C24.9905 3.52584 24.628 3.89304 24.2416 4.28444C24.1825 4.34429 24.1228 4.40471 24.0625 4.46573C23.9486 4.58246 23.8333 4.69908 23.7178 4.81577L23.7155 4.81804C23.6004 4.93439 23.4852 5.05085 23.37 5.16884L23.37 5.16886L23.3675 5.17134L21.3819 7.14951C20.995 7.53489 20.8291 7.89316 20.8291 8.21373C20.8291 8.53431 20.995 8.89258 21.3819 9.27796C21.4858 9.38154 21.5897 9.48666 21.6927 9.59095L21.6931 9.59137C21.7965 9.69604 21.8991 9.79988 22.0016 9.90194L22.0025 9.90289C22.049 9.9497 22.0952 9.99627 22.1412 10.0426C22.7102 10.6161 23.2447 11.1547 23.8296 11.6706L23.8353 11.6756L23.8406 11.681L23.874 11.7142C24.1861 12.0252 24.3313 12.3442 24.3696 12.6547C24.4071 12.9588 24.339 13.2312 24.2678 13.4443C24.2618 13.4621 24.2559 13.4766 24.2527 13.4846C24.2492 13.4932 24.2485 13.4953 24.2478 13.4974L24.2449 13.506L24.2414 13.5144C23.7173 14.7688 22.9907 15.957 21.8673 17.3644L21.8658 17.3662C19.8524 19.84 17.7274 21.764 15.3833 23.2472M25.3816 3.16528L21.6719 17.2084C19.6729 19.6645 17.5673 21.5697 15.2484 23.0367M3.19103 25.358L7.20886 21.3619L7.21557 21.3553L7.21544 21.3551C7.45728 21.0957 7.80853 20.8439 8.21197 20.8439C8.53872 20.8439 8.89869 21.0069 9.25492 21.3618L11.747 23.8445C11.865 23.9621 12.275 24.3687 12.9163 24.3687C13.1729 24.3687 13.4246 24.3044 13.6755 24.1758M3.19103 25.358L13.6755 24.1758M13.6755 24.1758C13.675 24.1761 13.6746 24.1763 13.6741 24.1766L13.5626 23.9528L13.6768 24.1752C13.6763 24.1754 13.6759 24.1756 13.6755 24.1758ZM13.6755 24.1758C13.6953 24.1659 13.7121 24.1563 13.7229 24.1501C13.7256 24.1486 13.728 24.1472 13.7302 24.146C13.7378 24.1417 13.7425 24.1392 13.7474 24.1367L13.7589 24.131L13.7698 24.1241C13.9775 23.9924 14.2135 23.8714 14.4803 23.7384L14.4824 23.7374C14.5284 23.714 14.5756 23.6902 14.6238 23.6659C14.8665 23.5437 15.1327 23.4097 15.3833 23.2472M13.6755 24.1758L13.6359 23.913C13.8558 23.7736 14.1023 23.6474 14.3689 23.5147C14.417 23.4901 14.4657 23.4656 14.5147 23.4409C14.7578 23.3185 15.01 23.1914 15.2484 23.0367M15.3833 23.2472C15.3829 23.2475 15.3825 23.2477 15.3821 23.248L15.2484 23.0367M15.3833 23.2472C15.3837 23.247 15.3841 23.2467 15.3845 23.2465L15.2484 23.0367M26.5214 22.2411L26.521 22.2416C23.3268 26.0454 19.4806 29.0414 15.0906 31.1613L15.0886 31.1622C13.4236 31.9483 11.1692 32.8951 8.64784 33.0576L8.64784 33.0576L8.64258 33.0578L8.62222 33.0587C8.47699 33.065 8.33121 33.0714 8.17865 33.0714C6.45499 33.0714 5.0563 32.4751 3.92178 31.2503C3.91445 31.2431 3.89218 31.2205 3.87124 31.1895C3.52306 30.7727 3.13007 30.3929 2.70657 29.9837C2.67616 29.9543 2.6456 29.9247 2.61488 29.895C2.30067 29.5953 1.97817 29.2808 1.66833 28.9587C0.92156 28.1832 0.53389 27.2868 0.535706 26.381C0.537525 25.4746 0.929363 24.5886 1.68539 23.8354L5.68834 19.8476C6.40744 19.1039 7.28208 18.6976 8.21197 18.6976C9.14217 18.6976 10.0226 19.1041 10.7605 19.8393L13.0126 22.0828C13.1842 21.99 13.3555 21.9047 13.515 21.8253L13.5178 21.8239C13.7846 21.6909 14.0206 21.5699 14.2284 21.4382L14.2286 21.4381C16.3743 20.0808 18.3267 18.308 20.1978 16.0227C21.0904 14.897 21.6984 13.9508 22.1296 13.0037C21.5475 12.4712 21.0001 11.9192 20.4739 11.3826L20.4731 11.3817C20.2748 11.1777 20.0697 10.9733 19.8629 10.7673C19.107 10.0143 18.6832 9.12386 18.6832 8.20046C18.6832 7.27813 19.0995 6.38739 19.8633 5.63325C19.8634 5.6331 19.8636 5.63295 19.8637 5.6328L21.8486 3.65544C22.0742 3.4307 22.2873 3.21209 22.5078 2.98604L22.5256 2.96773C22.5256 2.9677 22.5257 2.96768 22.5257 2.96765C22.965 2.51672 23.4278 2.04894 23.8852 1.62658C24.6113 0.918395 25.4772 0.535645 26.4028 0.535645C27.3232 0.535645 28.1956 0.919561 28.9471 1.63328L28.9472 1.63323L28.9514 1.63745L31.4435 4.12012C32.3912 5.06427 32.9304 6.21473 33.0421 7.54225L33.0421 7.54331C33.1725 9.17683 32.869 10.9005 32.1011 12.9608C30.9233 16.1455 29.1479 19.0972 26.5214 22.2411Z" fill="white" stroke="white" stroke-width="0.5"/>
</svg>
